<svg width="215" height="215" viewBox="0 0 215 215" fill="none" xmlns="http://www.w3.org/2000/svg">
<g clip-path="url(#clip0_695_344)">
<path d="M107.276 0.862061C166.168 0.862061 213.909 48.6067 213.909 107.485C213.909 166.377 166.168 214.117 107.276 214.117C48.3842 214.117 0.644113 166.377 0.644043 107.49C0.644043 48.6027 48.3841 0.862291 107.276 0.862061Z" fill="#C2CBEA" stroke="#003799" stroke-width="0.78"/>
<g filter="url(#filter0_d_695_344)">
<path d="M60.8999 52.8961C60.8999 48.7668 64.2443 45.4224 68.3691 45.4224H123.164L154.299 71.5758V162.482C154.299 166.607 150.954 169.951 146.825 169.951H68.3691C64.2443 169.951 60.8999 166.607 60.8999 162.482V52.8961Z" fill="white"/>
</g>
<path d="M122.973 45.2263V63.9061C122.973 68.0354 126.317 71.3798 130.446 71.3798H154.107L122.973 45.2263Z" fill="#F0F1F1"/>
<path d="M115.192 80.2487C115.192 80.5046 115.141 80.758 115.043 80.9944C114.945 81.2308 114.802 81.4456 114.621 81.6266C114.44 81.8076 114.225 81.9511 113.989 82.049C113.752 82.147 113.499 82.1974 113.243 82.1974H78.2201C77.72 82.1734 77.2483 81.9579 76.9028 81.5955C76.5573 81.2331 76.3646 80.7516 76.3646 80.2509C76.3646 79.7502 76.5573 79.2687 76.9028 78.9063C77.2483 78.5439 77.72 78.3284 78.2201 78.3044H113.243C114.318 78.3044 115.192 79.1785 115.192 80.2487ZM138.54 95.8159C138.54 96.3315 138.335 96.8261 137.971 97.1907C137.606 97.5553 137.112 97.7601 136.596 97.7601H78.2201C77.7272 97.7267 77.2654 97.5074 76.9281 97.1464C76.5908 96.7855 76.4032 96.3099 76.4032 95.8159C76.4032 95.3219 76.5908 94.8463 76.9281 94.4854C77.2654 94.1244 77.7272 93.9051 78.2201 93.8717H136.592C137.671 93.8717 138.54 94.7412 138.54 95.8159ZM138.54 111.383C138.54 112.453 137.671 113.327 136.596 113.327H78.2201C77.7045 113.327 77.2099 113.123 76.8453 112.758C76.4807 112.393 76.2759 111.899 76.2759 111.383C76.2759 110.867 76.4807 110.373 76.8453 110.008C77.2099 109.644 77.7045 109.439 78.2201 109.439H136.592C137.671 109.439 138.54 110.308 138.54 111.383ZM138.54 126.95C138.54 128.021 137.671 128.895 136.596 128.895H78.2201C77.72 128.871 77.2483 128.655 76.9028 128.293C76.5573 127.93 76.3646 127.449 76.3646 126.948C76.3646 126.447 76.5573 125.966 76.9028 125.604C77.2483 125.241 77.72 125.026 78.2201 125.002H136.592C137.671 125.002 138.54 125.876 138.54 126.95Z" fill="#E2E4E5"/>
<path d="M169.545 58.8433C169.545 71.6681 167.271 82.5085 163.472 91.6544V91.6722C159.735 94.4548 151.914 99.7078 146.192 99.7078C149.679 100.876 154.192 101.692 158.723 101.108C152.908 110.874 145.657 119.761 134.464 118.053C136.467 119.088 138.857 120.042 141.465 120.644C128.489 131.012 112.579 135.092 97.5464 136.679C97.5464 105.545 120.556 58.8433 169.545 58.8433Z" fill="#003799"/>
<path d="M169.545 58.8433C122.157 58.8433 97.5464 103.587 97.5464 136.679L169.541 59.1554L169.545 58.8433Z" fill="#003799"/>
<path d="M83.9277 152.14L169.545 58.8481L91.7091 150.298L83.9277 152.14Z" fill="#BDBDBD"/>
<path d="M169.545 58.8433L83.9277 144.461V152.14L169.545 58.8433Z" fill="#DFDFDF"/>
</g>
<defs>
<filter id="filter0_d_695_344" x="57.7798" y="45.4224" width="99.6392" height="130.769" filterUnits="userSpaceOnUse" color-interpolation-filters="sRGB">
<feFlood flood-opacity="0" result="BackgroundImageFix"/>
<feColorMatrix in="SourceAlpha" type="matrix" values="0 0 0 0 0 0 0 0 0 0 0 0 0 0 0 0 0 0 127 0" result="hardAlpha"/>
<feOffset dy="3.12013"/>
<feGaussianBlur stdDeviation="1.56007"/>
<feComposite in2="hardAlpha" operator="out"/>
<feColorMatrix type="matrix" values="0 0 0 0 0 0 0 0 0 0 0 0 0 0 0 0 0 0 0.25 0"/>
<feBlend mode="normal" in2="BackgroundImageFix" result="effect1_dropShadow_695_344"/>
<feBlend mode="normal" in="SourceGraphic" in2="effect1_dropShadow_695_344" result="shape"/>
</filter>
<clipPath id="clip0_695_344">
<rect width="214.044" height="214.044" fill="white" transform="translate(0.253906 0.472656)"/>
</clipPath>
</defs>
</svg>
