<svg width="217" height="217" viewBox="0 0 217 217" fill="none" xmlns="http://www.w3.org/2000/svg">
<g clip-path="url(#clip0_955_616)">
<path d="M108.938 216.357C168.561 216.357 216.893 168.025 216.893 108.402C216.893 48.7929 168.561 0.456055 108.938 0.456055C49.3158 0.456055 0.983398 48.7884 0.983398 108.407C0.983398 168.025 49.3158 216.357 108.938 216.357Z" fill="#C2CBEA" fill-opacity="0.25"/>
<path d="M108.938 0.706055C168.423 0.706096 216.644 48.9313 216.644 108.402C216.643 167.887 168.423 216.107 108.938 216.107C49.4539 216.107 1.2334 167.886 1.2334 108.406C1.23357 48.9263 49.454 0.706055 108.938 0.706055Z" stroke="#003899" stroke-opacity="0.5" stroke-width="0.5"/>
<g filter="url(#filter0_d_955_616)">
<path d="M171.746 57.3752V159.438C171.743 162.56 170.502 165.554 168.294 167.762C166.086 169.97 163.092 171.211 159.97 171.214H57.9071C54.7838 171.213 51.7887 169.972 49.5798 167.764C47.3709 165.556 46.1288 162.561 46.1265 159.438V57.3752C46.1288 54.2527 47.3703 51.2588 49.5782 49.0509C51.7862 46.843 54.7801 45.6015 57.9026 45.5991H159.97C163.092 45.6015 166.086 46.843 168.294 49.0509C170.502 51.2588 171.743 54.2527 171.746 57.3752Z" fill="#0484AB" fill-opacity="0.42" shape-rendering="crispEdges"/>
</g>
<path d="M171.746 63.1599V159.438C171.743 162.56 170.502 165.554 168.294 167.762C166.086 169.97 163.092 171.212 159.97 171.214H57.9071C54.783 171.213 51.7873 169.971 49.5782 167.762C47.3692 165.553 46.1277 162.557 46.1265 159.433V132.467L68.1313 118.316L101.516 124.208L132 103.89L149.588 72.6644L171.746 63.1599Z" fill="#059BBF" fill-opacity="0.38"/>
<path d="M171.746 78.9663V75.0394H158.013V67.1902H154.086V75.0394H144.271V78.9663H154.086V90.7424H142.31V84.8543H138.383V90.7469H136.422V94.6692H138.383V106.445H122.684V122.144H110.904V118.221H106.977V122.148H95.2009V120.183H91.274V122.148H79.498V118.221H75.5756V122.148H63.795V120.183H59.8726V122.148H55.514V126.071H59.8726V137.847H46.1309V141.774H59.8726V153.55H46.1309V157.477H59.8726V171.214H63.795V157.477H75.5756V171.214H79.498V157.477H91.274V171.214H95.2009V157.477H106.977V171.214H110.904V157.477H122.68V171.214H126.607V157.477H138.383V171.214H142.31V157.477H154.086V171.214H158.013V157.477H171.75V153.55H158.013V141.774H171.75V137.847H158.013V126.071H171.75V122.148H158.013V110.372H171.75V106.445H158.013V94.6692H171.75V90.7424H158.013V78.9663H171.746ZM126.602 110.372H138.378V122.148H126.602V110.372ZM138.378 126.071V137.847H126.602V126.071H138.378ZM122.68 126.071V137.847H110.899V126.071H122.68ZM106.972 126.071V137.847H95.1964V126.071H106.972ZM91.274 126.071V137.847H79.4935V126.071H91.274ZM63.7905 126.071H75.5711V137.847H63.7905V126.071ZM63.7905 153.55V141.774H75.5711V153.55H63.7905ZM79.4935 153.55V141.774H91.274V153.55H79.4935ZM95.1964 153.55V141.774H106.972V153.55H95.1964ZM110.899 153.55V141.774H122.675V153.55H110.899ZM126.602 153.55V141.774H138.378V153.55H126.602ZM154.086 153.55H142.305V141.774H154.081L154.086 153.55ZM154.086 137.851H142.305V126.071H154.081L154.086 137.851ZM154.086 122.148H142.305V110.372H154.081L154.086 122.148ZM154.086 106.445H142.305V94.6692H154.081L154.086 106.445Z" fill="#A2EFFF" fill-opacity="0.74"/>
<path d="M171.746 58.8867L150.829 67.838C145.58 65.1841 140.16 71.0317 143.147 76.0696L131.532 96.7294C130.566 96.555 129.572 96.6266 128.64 96.9378C127.709 97.2489 126.871 97.7894 126.204 98.5096C125.537 99.2298 125.062 100.106 124.822 101.059C124.583 102.011 124.587 103.008 124.835 103.958L104.602 117.452C103.938 116.945 103.172 116.587 102.357 116.403C101.542 116.218 100.697 116.212 99.8789 116.383C99.061 116.555 98.2898 116.901 97.6176 117.397C96.9454 117.894 96.3881 118.529 95.9837 119.261L73.5065 115.289C72.1751 107.251 60.1741 109.846 62.0003 117.601L46.1265 127.798V132.467L64.128 120.893C64.7906 121.415 65.5587 121.786 66.3789 121.981C67.1991 122.176 68.052 122.191 68.8785 122.024C69.705 121.857 70.4853 121.513 71.1656 121.015C71.8459 120.517 72.4098 119.877 72.8183 119.139L95.2955 123.106C95.409 123.902 95.6846 124.666 96.1051 125.35C96.5256 126.035 97.0821 126.626 97.7403 127.087C98.3984 127.549 99.1441 127.87 99.9313 128.031C100.718 128.192 101.53 128.191 102.317 128.026C103.103 127.861 103.848 127.536 104.504 127.072C105.16 126.608 105.713 126.014 106.131 125.328C106.548 124.641 106.82 123.876 106.93 123.08C107.04 122.284 106.986 121.474 106.77 120.7L127.012 107.215C132.607 111.416 139.562 103.953 134.942 98.6636L146.237 78.6065C151.068 80.3158 155.489 75.5523 153.659 70.9192L171.746 63.1644V58.8867Z" fill="white"/>
<path d="M116.792 94.6647L101.089 106.441L85.3862 94.6647V59.3364H116.792V94.6647Z" fill="white"/>
<path d="M101.157 67.4871C102.02 67.4871 102.704 68.1753 102.704 69.0389V69.4527C104.22 69.6641 105.682 70.1454 107.022 70.8831C107.469 71.1159 107.812 71.5087 107.982 71.9832C108.152 72.4576 108.137 72.9788 107.94 73.4426C107.787 73.8105 107.526 74.1237 107.193 74.3412C106.859 74.5587 106.467 74.6704 106.069 74.6616C105.704 74.6575 105.346 74.5649 105.025 74.3917C104.245 73.959 103.416 73.6208 102.556 73.3841V77.9047C107.081 79.1282 109.019 80.9724 109.019 84.3056C109.019 87.6432 106.455 89.7843 102.709 90.1981V91.7769C102.712 91.9816 102.674 92.1847 102.597 92.3744C102.52 92.564 102.405 92.7363 102.261 92.881C102.116 93.0257 101.944 93.1399 101.754 93.2168C101.564 93.2938 101.361 93.3318 101.157 93.3288C100.953 93.3312 100.751 93.2928 100.562 93.2159C100.373 93.139 100.201 93.0251 100.057 92.881C99.913 92.7368 99.7991 92.5653 99.7222 92.3764C99.6453 92.1876 99.6069 91.9853 99.6093 91.7814V90.1711C97.529 89.8992 95.5298 89.1894 93.7438 88.0885C93.4312 87.9081 93.1726 87.6474 92.9946 87.3334C92.8167 87.0194 92.7259 86.6636 92.7317 86.3027C92.7317 85.1377 93.6268 84.2786 94.7874 84.2786C95.2005 84.2973 95.6005 84.4296 95.9434 84.6609C97.1939 85.4706 98.3859 86.0328 99.7533 86.3297V81.6022C95.4666 80.4417 93.3525 78.8043 93.3525 75.2598C93.3525 71.9897 95.8534 69.7856 99.6048 69.3988V69.0389C99.6042 68.8352 99.644 68.6333 99.7219 68.445C99.7997 68.2567 99.914 68.0857 100.058 67.9418C100.203 67.798 100.374 67.6841 100.562 67.6068C100.751 67.5295 100.953 67.4859 101.157 67.4871ZM99.7578 77.14V73.1187C98.3274 73.3256 97.7021 74.0408 97.7021 74.9944C97.7021 75.9165 98.1205 76.5418 99.7578 77.14ZM102.556 82.3489V86.4871C103.955 86.2757 104.67 85.619 104.67 84.5529C104.67 83.5679 104.161 82.9156 102.556 82.3489Z" fill="#F37A10"/>
</g>
<defs>
<filter id="filter0_d_955_616" x="42.1265" y="41.5991" width="133.619" height="133.615" filterUnits="userSpaceOnUse" color-interpolation-filters="sRGB">
<feFlood flood-opacity="0" result="BackgroundImageFix"/>
<feColorMatrix in="SourceAlpha" type="matrix" values="0 0 0 0 0 0 0 0 0 0 0 0 0 0 0 0 0 0 127 0" result="hardAlpha"/>
<feOffset/>
<feGaussianBlur stdDeviation="2"/>
<feComposite in2="hardAlpha" operator="out"/>
<feColorMatrix type="matrix" values="0 0 0 0 0 0 0 0 0 0 0 0 0 0 0 0 0 0 0.25 0"/>
<feBlend mode="normal" in2="BackgroundImageFix" result="effect1_dropShadow_955_616"/>
<feBlend mode="normal" in="SourceGraphic" in2="effect1_dropShadow_955_616" result="shape"/>
</filter>
<clipPath id="clip0_955_616">
<rect width="215.91" height="215.91" fill="white" transform="translate(0.983398 0.456055)"/>
</clipPath>
</defs>
</svg>
