<svg width="215" height="215" viewBox="0 0 215 215" fill="none" xmlns="http://www.w3.org/2000/svg">
<g clip-path="url(#clip0_695_361)">
<path d="M107.957 0.861816C166.848 0.861816 214.588 48.6065 214.588 107.485C214.588 166.377 166.848 214.117 107.957 214.117C49.0649 214.116 1.32478 166.377 1.32471 107.49C1.32471 48.6025 49.0648 0.862047 107.957 0.861816Z" fill="#D7ECBE" stroke="#71C108" stroke-width="0.780033"/>
<path d="M92.3897 138.651C118.182 138.651 139.091 117.746 139.091 91.9538C139.091 66.1615 118.178 45.2566 92.3897 45.2566C66.6019 45.2566 45.688 66.166 45.688 91.9538C45.688 117.746 66.5974 138.651 92.3897 138.651Z" fill="#F0F1F1"/>
<path d="M92.3897 45.2566C66.5974 45.2566 45.688 66.166 45.688 91.9538C45.688 104.957 51.0079 116.712 59.5785 125.175L125.616 59.1516C121.277 54.7458 116.105 51.2484 110.4 48.8635C104.695 46.4786 98.5728 45.2495 92.3897 45.2566Z" fill="white"/>
<path d="M107.957 94.875H92.39C91.6154 94.875 90.8725 94.5673 90.3247 94.0196C89.777 93.4718 89.4692 92.7289 89.4692 91.9542V62.7685C89.4692 62.3849 89.5448 62.0051 89.6916 61.6507C89.8384 61.2964 90.0535 60.9744 90.3247 60.7031C90.5959 60.4319 90.9179 60.2168 91.2723 60.07C91.6267 59.9232 92.0065 59.8477 92.39 59.8477C92.7736 59.8477 93.1534 59.9232 93.5078 60.07C93.8622 60.2168 94.1841 60.4319 94.4554 60.7031C94.7266 60.9744 94.9417 61.2964 95.0885 61.6507C95.2353 62.0051 95.3108 62.3849 95.3108 62.7685V89.0334H107.957C108.732 89.0334 109.475 89.3412 110.023 89.8889C110.57 90.4367 110.878 91.1796 110.878 91.9542C110.878 92.7289 110.57 93.4718 110.023 94.0196C109.475 94.5673 108.732 94.875 107.957 94.875Z" fill="#FFC8C8"/>
<path d="M95.3108 89.0334V62.7685C95.3108 61.9938 95.0031 61.2509 94.4554 60.7031C93.9076 60.1554 93.1647 59.8477 92.39 59.8477C91.6154 59.8477 90.8725 60.1554 90.3247 60.7031C89.777 61.2509 89.4692 61.9938 89.4692 62.7685V91.9542C89.4704 92.3866 89.5684 92.8133 89.7559 93.203C89.9434 93.5926 90.2157 93.9354 90.5528 94.2062L95.7256 89.0334H95.3108Z" fill="#FFB1B1"/>
<path d="M129.362 91.954C129.362 92.4696 129.157 92.9641 128.793 93.3287C128.428 93.6934 127.934 93.8982 127.418 93.8982H121.576C121.061 93.8982 120.566 93.6934 120.202 93.3287C119.837 92.9641 119.632 92.4696 119.632 91.954C119.632 91.4383 119.837 90.9438 120.202 90.5792C120.566 90.2146 121.061 90.0097 121.576 90.0097H127.418C127.933 90.0109 128.427 90.2161 128.791 90.5805C129.156 90.9448 129.361 91.4387 129.362 91.954ZM118.535 65.8139C118.717 65.9938 118.861 66.2081 118.96 66.4442C119.058 66.6803 119.109 66.9337 119.109 67.1895C119.109 67.4454 119.058 67.6987 118.96 67.9349C118.861 68.171 118.717 68.3853 118.535 68.5652L114.406 72.69C114.225 72.8707 114.011 73.014 113.775 73.1118C113.539 73.2095 113.286 73.2598 113.03 73.2598C112.775 73.2598 112.522 73.2095 112.286 73.1118C112.05 73.014 111.835 72.8707 111.655 72.69C111.474 72.5094 111.331 72.2949 111.233 72.0589C111.135 71.8228 111.085 71.5698 111.085 71.3143C111.085 71.0589 111.135 70.8059 111.233 70.5698C111.331 70.3338 111.474 70.1193 111.655 69.9387L115.784 65.8139C116.151 65.453 116.645 65.2508 117.159 65.2508C117.674 65.2508 118.168 65.453 118.535 65.8139ZM55.4189 91.954C55.4189 91.6983 55.4694 91.4451 55.5674 91.2089C55.6653 90.9727 55.809 90.7582 55.99 90.5776C56.171 90.397 56.3858 90.2539 56.6222 90.1564C56.8586 90.059 57.1119 90.0091 57.3676 90.0097H63.2092C63.7021 90.0431 64.1639 90.2625 64.5012 90.6234C64.8386 90.9844 65.0262 91.4599 65.0262 91.954C65.0262 92.448 64.8386 92.9236 64.5012 93.2845C64.1639 93.6454 63.7021 93.8648 63.2092 93.8982H57.3676C57.1119 93.8988 56.8586 93.8489 56.6222 93.7515C56.3858 93.654 56.171 93.5109 55.99 93.3303C55.809 93.1497 55.6653 92.9352 55.5674 92.699C55.4694 92.4628 55.4189 92.2097 55.4189 91.954ZM66.2505 65.8139C66.6157 65.4498 67.1104 65.2454 67.6261 65.2454C68.1419 65.2454 68.6365 65.4498 69.0018 65.8139L73.1266 69.9387C73.4577 70.31 73.6343 70.794 73.62 71.2913C73.6058 71.7886 73.4019 72.2617 73.0501 72.6135C72.6983 72.9653 72.2252 73.1692 71.7279 73.1834C71.2305 73.1977 70.7466 73.0211 70.3753 72.69L66.246 68.5652C65.8851 68.1983 65.6829 67.7042 65.6829 67.1895C65.6829 66.6749 65.8851 66.1808 66.246 65.8139M66.2505 118.099C65.8883 117.731 65.6852 117.236 65.6852 116.721C65.6852 116.205 65.8883 115.71 66.2505 115.343L70.3753 111.218C70.6021 110.993 70.8807 110.827 71.1866 110.735C71.4925 110.643 71.8163 110.627 72.1297 110.689C72.4431 110.751 72.7365 110.889 72.9842 111.091C73.2318 111.293 73.4262 111.552 73.5502 111.847C73.6956 112.203 73.7329 112.594 73.6576 112.972C73.5823 113.349 73.3976 113.696 73.1266 113.969L69.0018 118.094C68.6365 118.458 68.1419 118.663 67.6261 118.663C67.1104 118.663 66.6157 118.463 66.2505 118.099Z" fill="#CFD3D4"/>
<path d="M111.85 146.437V113.358H97.7139C96.9974 113.358 96.2929 113.542 95.6676 113.891C95.0423 114.241 94.5171 114.745 94.1421 115.356L84.4387 131.012C84.031 131.673 83.8149 132.434 83.8145 133.211V158.597H162.137L166.328 146.009L111.85 146.437Z" fill="#003799"/>
<path d="M97.4955 160.056H84.2114C83.7523 160.056 83.2977 159.965 82.8735 159.79C82.4493 159.614 82.0639 159.356 81.7393 159.032C81.4147 158.707 81.1571 158.322 80.9814 157.898C80.8058 157.473 80.7153 157.019 80.7153 156.56C80.7153 156.101 80.8058 155.646 80.9814 155.222C81.1571 154.798 81.4147 154.412 81.7393 154.088C82.0639 153.763 82.4493 153.506 82.8735 153.33C83.2977 153.154 83.7523 153.064 84.2114 153.064H97.4999L97.4955 160.056ZM164.384 153.064H101.446V160.056H164.384V153.064Z" fill="#E2E4E5"/>
<path d="M96.2472 169.75C97.5381 169.778 98.8215 169.548 100.022 169.073C101.223 168.598 102.317 167.888 103.239 166.985C104.162 166.082 104.895 165.004 105.396 163.813C105.896 162.623 106.154 161.345 106.154 160.054C106.154 158.763 105.896 157.484 105.396 156.294C104.895 155.104 104.162 154.026 103.239 153.123C102.317 152.219 101.223 151.51 100.022 151.035C98.8215 150.56 97.5381 150.33 96.2472 150.357C93.6749 150.357 91.208 151.379 89.3891 153.198C87.5702 155.017 86.5483 157.484 86.5483 160.056C86.5483 162.628 87.5702 165.095 89.3891 166.914C91.208 168.733 93.6749 169.755 96.2472 169.755" fill="#3E3E3F"/>
<path d="M96.2516 163.939C97.2805 163.939 98.2673 163.531 98.9949 162.803C99.7224 162.075 100.131 161.089 100.131 160.06C100.131 159.031 99.7224 158.044 98.9949 157.316C98.2673 156.589 97.2805 156.18 96.2516 156.18C95.2227 156.18 94.2359 156.589 93.5084 157.316C92.7808 158.044 92.3721 159.031 92.3721 160.06C92.3721 161.089 92.7808 162.075 93.5084 162.803C94.2359 163.531 95.2227 163.939 96.2516 163.939Z" fill="#CFD3D4"/>
<g filter="url(#filter0_d_695_361)">
<path d="M170.227 143.637C170.224 144.379 169.928 145.09 169.404 145.615C168.879 146.139 168.168 146.435 167.426 146.438H111.851V98.6434C111.851 97.0961 113.099 95.843 114.647 95.843H167.426C168.969 95.843 170.227 97.0961 170.227 98.6434V143.637Z" fill="#FFF7CE"/>
</g>
<path d="M148.79 169.75C150.081 169.778 151.364 169.548 152.565 169.073C153.765 168.598 154.859 167.888 155.782 166.985C156.705 166.082 157.438 165.004 157.938 163.813C158.439 162.623 158.696 161.345 158.696 160.054C158.696 158.763 158.439 157.484 157.938 156.294C157.438 155.104 156.705 154.026 155.782 153.123C154.859 152.219 153.765 151.51 152.565 151.035C151.364 150.56 150.081 150.33 148.79 150.357C146.217 150.357 143.75 151.379 141.932 153.198C140.113 155.017 139.091 157.484 139.091 160.056C139.091 162.628 140.113 165.095 141.932 166.914C143.75 168.733 146.217 169.755 148.79 169.755" fill="#3E3E3F"/>
<path d="M148.79 163.94C149.819 163.94 150.807 163.531 151.535 162.803C152.263 162.075 152.671 161.088 152.671 160.058C152.671 159.029 152.263 158.041 151.535 157.313C150.807 156.585 149.819 156.176 148.79 156.176C147.761 156.176 146.774 156.585 146.046 157.313C145.319 158.04 144.91 159.027 144.91 160.056C144.91 161.085 145.319 162.072 146.046 162.799C146.774 163.527 147.761 163.94 148.79 163.94Z" fill="#CFD3D4"/>
<path d="M106.012 136.703H96.2822V140.6H106.012V136.703Z" fill="#21B2D1"/>
<path d="M106.008 119.196V130.871H88.4966L96.278 119.196H106.008Z" fill="#40C9E7"/>
<path d="M111.48 113.358H97.7139C96.9974 113.358 96.2929 113.542 95.6676 113.891C95.0423 114.241 94.5171 114.745 94.1421 115.356L84.4387 131.012C84.031 131.673 83.8149 132.434 83.8145 133.211V141.014L111.48 113.358Z" fill="#003799"/>
<path d="M96.2824 119.196L88.4966 130.871H93.9636L105.638 119.196H96.2824Z" fill="#6FDAF1"/>
<path d="M162.44 107.522C162.439 108.037 162.233 108.531 161.869 108.895C161.505 109.259 161.011 109.465 160.496 109.466H121.58C121.064 109.466 120.57 109.261 120.205 108.896C119.84 108.532 119.636 108.037 119.636 107.522C119.636 107.006 119.84 106.511 120.205 106.147C120.57 105.782 121.064 105.577 121.58 105.577H160.496C161.011 105.579 161.505 105.784 161.869 106.148C162.233 106.513 162.439 107.006 162.44 107.522ZM162.44 121.14C162.44 121.396 162.391 121.649 162.293 121.886C162.196 122.122 162.053 122.337 161.872 122.518C161.691 122.699 161.477 122.842 161.241 122.94C161.004 123.038 160.751 123.089 160.496 123.089H121.58C121.064 123.089 120.568 122.884 120.203 122.519C119.838 122.154 119.633 121.659 119.633 121.142C119.633 120.626 119.838 120.131 120.203 119.766C120.568 119.401 121.064 119.196 121.58 119.196H160.496C161.011 119.197 161.505 119.402 161.869 119.767C162.233 120.131 162.439 120.625 162.44 121.14ZM162.44 134.763C162.44 135.279 162.235 135.773 161.87 136.138C161.506 136.503 161.011 136.707 160.496 136.707H121.58C121.064 136.707 120.57 136.503 120.205 136.138C119.84 135.773 119.636 135.279 119.636 134.763C119.636 134.248 119.84 133.753 120.205 133.388C120.57 133.024 121.064 132.819 121.58 132.819H160.496C161.011 132.82 161.505 133.025 161.869 133.39C162.233 133.754 162.439 134.248 162.44 134.763Z" fill="#FFE497"/>
</g>
<defs>
<filter id="filter0_d_695_361" x="108.73" y="95.843" width="64.6162" height="56.835" filterUnits="userSpaceOnUse" color-interpolation-filters="sRGB">
<feFlood flood-opacity="0" result="BackgroundImageFix"/>
<feColorMatrix in="SourceAlpha" type="matrix" values="0 0 0 0 0 0 0 0 0 0 0 0 0 0 0 0 0 0 127 0" result="hardAlpha"/>
<feOffset dy="3.12013"/>
<feGaussianBlur stdDeviation="1.56007"/>
<feComposite in2="hardAlpha" operator="out"/>
<feColorMatrix type="matrix" values="0 0 0 0 0 0 0 0 0 0 0 0 0 0 0 0 0 0 0.25 0"/>
<feBlend mode="normal" in2="BackgroundImageFix" result="effect1_dropShadow_695_361"/>
<feBlend mode="normal" in="SourceGraphic" in2="effect1_dropShadow_695_361" result="shape"/>
</filter>
<clipPath id="clip0_695_361">
<rect width="214.044" height="214.044" fill="white" transform="translate(0.936035 0.472656)"/>
</clipPath>
</defs>
</svg>
