<svg width="216" height="217" viewBox="0 0 216 217" fill="none" xmlns="http://www.w3.org/2000/svg">
<g clip-path="url(#clip0_955_632)">
<path d="M108 216.636C167.623 216.636 215.955 168.304 215.955 108.681C215.955 49.072 167.623 0.735107 108 0.735107C48.3773 0.735107 0.0449219 49.0675 0.0449219 108.686C0.0449219 168.304 48.3773 216.636 108 216.636Z" fill="#D7ECBE" fill-opacity="0.25"/>
<path d="M108 0.985107C167.485 0.985149 215.705 49.2103 215.705 108.681C215.705 168.166 167.484 216.386 108 216.386C48.5154 216.386 0.294922 168.165 0.294922 108.685C0.295091 49.2054 48.5155 0.985107 108 0.985107Z" stroke="#519200" stroke-opacity="0.5" stroke-width="0.5"/>
<g filter="url(#filter0_d_955_632)">
<path d="M54.4927 53.417C54.4927 51.4184 55.2863 49.5015 56.6992 48.0878C58.112 46.6742 60.0284 45.8794 62.027 45.8782H117.3L148.706 72.2597V163.958C148.706 164.948 148.511 165.928 148.132 166.843C147.753 167.757 147.198 168.588 146.498 169.288C145.797 169.987 144.966 170.542 144.052 170.921C143.137 171.299 142.157 171.493 141.167 171.493H62.027C61.0372 171.493 60.0571 171.298 59.1427 170.919C58.2283 170.54 57.3975 169.985 56.6979 169.284C55.9982 168.584 55.4433 167.753 55.0649 166.839C54.6865 165.924 54.4921 164.944 54.4927 163.954V53.417Z" fill="white"/>
</g>
<path d="M117.3 45.8782V64.7208C117.299 65.711 117.494 66.6916 117.872 67.6065C118.251 68.5214 118.806 69.3527 119.507 70.0529C120.207 70.7531 121.038 71.3084 121.953 71.687C122.868 72.0657 123.848 72.2603 124.839 72.2597H148.706L117.3 45.8782Z" fill="#F0F1F1"/>
<path d="M109.451 81.2065C109.451 81.4645 109.4 81.7199 109.301 81.9581C109.202 82.1963 109.057 82.4127 108.875 82.5949C108.692 82.7771 108.475 82.9214 108.237 83.0197C107.998 83.118 107.743 83.1683 107.485 83.1677H72.1568C71.6367 83.1677 71.1378 82.9611 70.77 82.5933C70.4022 82.2255 70.1956 81.7267 70.1956 81.2065C70.1956 80.6864 70.4022 80.1876 70.77 79.8198C71.1378 79.452 71.6367 79.2454 72.1568 79.2454H107.485C107.743 79.2448 107.998 79.2951 108.237 79.3934C108.475 79.4916 108.692 79.636 108.875 79.8182C109.057 80.0004 109.202 80.2168 109.301 80.455C109.4 80.6932 109.451 80.9486 109.451 81.2065ZM133.003 96.905C133.004 97.1629 132.953 97.4184 132.855 97.6569C132.757 97.8954 132.612 98.1121 132.43 98.2947C132.248 98.4773 132.032 98.6221 131.793 98.721C131.555 98.8198 131.3 98.8707 131.042 98.8707H72.1568C71.6361 98.8707 71.1366 98.6638 70.7684 98.2956C70.4002 97.9274 70.1934 97.428 70.1934 96.9073C70.1934 96.3865 70.4002 95.8871 70.7684 95.5189C71.1366 95.1507 71.6361 94.9438 72.1568 94.9438H131.037C131.559 94.9438 132.059 95.1509 132.427 95.5196C132.796 95.8882 133.003 96.3882 133.003 96.9095M133.003 112.608C133.004 112.866 132.953 113.121 132.855 113.36C132.757 113.598 132.612 113.815 132.43 113.998C132.248 114.18 132.032 114.325 131.793 114.424C131.555 114.523 131.3 114.574 131.042 114.574H72.1568C71.6361 114.574 71.1366 114.367 70.7684 113.999C70.4002 113.63 70.1934 113.131 70.1934 112.61C70.1934 112.089 70.4002 111.59 70.7684 111.222C71.1366 110.854 71.6361 110.647 72.1568 110.647H131.037C131.295 110.646 131.551 110.696 131.789 110.795C132.028 110.893 132.244 111.037 132.427 111.22C132.61 111.402 132.754 111.618 132.853 111.856C132.952 112.095 133.003 112.35 133.003 112.608ZM133.003 128.311C133.002 128.831 132.795 129.329 132.427 129.696C132.06 130.064 131.562 130.271 131.042 130.272H72.1568C71.6361 130.272 71.1366 130.065 70.7684 129.697C70.4002 129.329 70.1934 128.829 70.1934 128.309C70.1934 127.788 70.4002 127.289 70.7684 126.92C71.1366 126.552 71.6361 126.345 72.1568 126.345H131.037C131.559 126.345 132.059 126.552 132.427 126.921C132.796 127.29 133.003 127.79 133.003 128.311Z" fill="#E2E4E5"/>
<path d="M148.706 118.496V107.547C148.706 103.747 150.267 100.202 152.75 97.3277C154.247 95.5954 155.346 93.5556 155.97 91.3523C156.593 89.1489 156.725 86.8356 156.357 84.5756C155.291 77.7114 149.547 72.2507 142.643 71.4905C140.444 71.2389 138.216 71.4548 136.107 72.1241C133.997 72.7935 132.053 73.9011 130.401 75.3744C128.749 76.8477 127.428 78.6534 126.523 80.6732C125.618 82.693 125.15 84.8812 125.149 87.0945C125.146 90.8838 126.521 94.545 129.018 97.3952C131.492 100.229 133.003 103.778 133.003 107.538V118.505C133.003 124.114 129.148 129.975 123.539 130.052C107.481 130.277 101.597 142.053 101.597 157.751H180.107C180.107 142.053 174.219 130.277 158.188 130.047C152.57 129.966 148.706 124.11 148.706 118.496Z" fill="#DF2C2C"/>
<path d="M176.18 161.678C176.18 162.719 175.767 163.717 175.032 164.453C174.296 165.19 173.299 165.604 172.258 165.605H109.451C108.935 165.607 108.423 165.507 107.946 165.31C107.469 165.113 107.035 164.824 106.67 164.459C106.305 164.094 106.016 163.66 105.819 163.183C105.623 162.706 105.522 162.194 105.524 161.678V157.751H176.18V161.678Z" fill="#3E3E3F"/>
<path d="M148.706 107.547C148.706 103.747 150.267 100.202 152.75 97.3277C154.247 95.5954 155.346 93.5556 155.97 91.3523C156.593 89.1489 156.725 86.8356 156.357 84.5756C155.291 77.7114 149.547 72.2507 142.643 71.4905C140.444 71.2389 138.216 71.4548 136.107 72.1241C133.997 72.7935 132.053 73.9011 130.401 75.3744C128.749 76.8477 127.428 78.6534 126.523 80.6732C125.618 82.693 125.15 84.8812 125.149 87.0945C125.146 90.8838 126.521 94.545 129.018 97.3952C131.492 100.229 133.003 103.778 133.003 107.538V118.505C133.003 124.114 129.148 129.975 123.539 130.052C107.481 130.277 101.597 142.053 101.597 157.751H111.776L148.89 120.642C148.772 119.932 148.71 119.215 148.706 118.496V107.547Z" fill="#FA5655"/>
</g>
<defs>
<filter id="filter0_d_955_632" x="50.4927" y="41.8782" width="102.213" height="133.615" filterUnits="userSpaceOnUse" color-interpolation-filters="sRGB">
<feFlood flood-opacity="0" result="BackgroundImageFix"/>
<feColorMatrix in="SourceAlpha" type="matrix" values="0 0 0 0 0 0 0 0 0 0 0 0 0 0 0 0 0 0 127 0" result="hardAlpha"/>
<feOffset/>
<feGaussianBlur stdDeviation="2"/>
<feComposite in2="hardAlpha" operator="out"/>
<feColorMatrix type="matrix" values="0 0 0 0 0 0 0 0 0 0 0 0 0 0 0 0 0 0 0.25 0"/>
<feBlend mode="normal" in2="BackgroundImageFix" result="effect1_dropShadow_955_632"/>
<feBlend mode="normal" in="SourceGraphic" in2="effect1_dropShadow_955_632" result="shape"/>
</filter>
<clipPath id="clip0_955_632">
<rect width="215.91" height="215.91" fill="white" transform="translate(0.0449219 0.735107)"/>
</clipPath>
</defs>
</svg>
