<svg width="215" height="215" viewBox="0 0 215 215" fill="none" xmlns="http://www.w3.org/2000/svg">
<path d="M107.641 0.861816C166.532 0.861816 214.273 48.6065 214.273 107.485C214.273 166.377 166.533 214.117 107.641 214.117C48.7489 214.116 1.00886 166.377 1.00879 107.49C1.00879 48.6024 48.7489 0.862047 107.641 0.861816Z" fill="#C2CBEA" stroke="#003799" stroke-width="0.78"/>
<path d="M123.204 111.384C123.204 109.23 124.947 107.491 127.097 107.491H158.231C160.38 107.491 162.124 109.23 162.124 111.384V165.863C162.124 168.012 160.385 169.756 158.231 169.756H127.097C126.065 169.754 125.076 169.344 124.347 168.614C123.618 167.884 123.208 166.894 123.208 165.863L123.204 111.384Z" fill="#3E3E3F"/>
<path d="M162.124 118.911V111.384C162.124 110.352 161.714 109.361 160.984 108.631C160.254 107.901 159.263 107.491 158.231 107.491H127.096C126.065 107.492 125.076 107.903 124.347 108.633C123.618 109.363 123.208 110.352 123.208 111.384V157.827L162.124 118.911Z" fill="#5B5C5F"/>
<path d="M45.3716 49.1138C45.3716 46.9644 47.1107 45.2253 49.2645 45.2253H103.748C105.897 45.2253 107.64 46.9644 107.64 49.1138V88.0296C107.64 90.179 105.901 91.9226 103.748 91.9226H49.2645C48.232 91.9226 47.2419 91.5124 46.5118 90.7824C45.7817 90.0523 45.3716 89.0621 45.3716 88.0296V49.1138Z" fill="#3E3E3F"/>
<path d="M49.2645 45.2253C48.2328 45.2253 47.2433 45.6349 46.5134 46.364C45.7834 47.0931 45.3728 48.0821 45.3716 49.1138V88.0296C45.3716 90.179 47.1151 91.9226 49.2645 91.9226H50.2723L96.974 45.2253H49.2645Z" fill="#5B5C5F"/>
<path d="M92.078 101.653C92.078 102.723 91.204 103.597 90.1293 103.597H62.8833C62.3832 103.573 61.9115 103.358 61.566 102.995C61.2206 102.633 61.0278 102.151 61.0278 101.651C61.0278 101.15 61.2206 100.668 61.566 100.306C61.9115 99.9436 62.3832 99.728 62.8833 99.7041H90.1293C91.1995 99.7041 92.0736 100.574 92.0736 101.648" fill="#F0F1F1"/>
<path d="M84.2884 91.9233H68.7256V99.7047H84.2884V91.9233Z" fill="#CFD3D4"/>
<path d="M107.64 88.0334V76.3591H45.3716V88.0334C45.3716 90.1828 47.1107 91.9219 49.2645 91.9219H103.748C105.897 91.9219 107.64 90.1828 107.64 88.0334Z" fill="white"/>
<path d="M76.5067 88.0334C77.5392 88.0334 78.5293 87.6233 79.2594 86.8932C79.9895 86.1631 80.3996 85.173 80.3996 84.1405C80.3996 83.108 79.9895 82.1178 79.2594 81.3878C78.5293 80.6577 77.5392 80.2476 76.5067 80.2476C75.4742 80.2476 74.484 80.6577 73.754 81.3878C73.0239 82.1178 72.6138 83.108 72.6138 84.1405C72.6138 85.173 73.0239 86.1631 73.754 86.8932C74.484 87.6233 75.4742 88.0334 76.5067 88.0334Z" fill="#B6BCBD"/>
<path d="M123.204 111.384V119.166H162.124V111.384C162.126 110.872 162.026 110.365 161.831 109.892C161.636 109.419 161.349 108.989 160.988 108.628C160.626 108.266 160.196 107.979 159.723 107.784C159.25 107.589 158.743 107.489 158.231 107.491H127.097C126.585 107.49 126.079 107.59 125.606 107.785C125.133 107.981 124.704 108.267 124.343 108.629C123.981 108.991 123.695 109.421 123.5 109.893C123.306 110.366 123.202 110.873 123.204 111.384ZM162.124 165.867V158.081H123.208V165.863C123.208 168.012 124.947 169.756 127.097 169.756H158.231C160.38 169.756 162.124 168.021 162.124 165.867Z" fill="white"/>
<path d="M142.668 167.811C143.701 167.811 144.691 167.401 145.421 166.671C146.151 165.94 146.561 164.95 146.561 163.918C146.561 162.885 146.151 161.895 145.421 161.165C144.691 160.435 143.701 160.025 142.668 160.025C141.659 160.059 140.703 160.484 140.001 161.21C139.299 161.936 138.907 162.906 138.907 163.916C138.907 164.925 139.299 165.895 140.001 166.621C140.703 167.347 141.659 167.777 142.668 167.811Z" fill="#B6BCBD"/>
<path d="M115.423 64.9445C116.387 64.7768 117.364 64.6888 118.343 64.6814C122.987 64.685 127.439 66.531 130.722 69.8143C134.005 73.0976 135.851 77.5496 135.855 82.1929H127.097L141.692 99.7043L156.287 82.1929H147.529C147.524 78.1155 146.665 74.0845 145.008 70.3589C143.351 66.6334 140.933 63.2958 137.909 60.5608C134.885 57.8257 131.322 55.7538 127.449 54.4783C123.577 53.2027 119.48 52.7517 115.423 53.1543V64.9445ZM103.753 150.036C102.788 150.202 101.811 150.289 100.832 150.294C96.1887 150.291 91.7366 148.445 88.4534 145.162C85.1701 141.878 83.324 137.426 83.3204 132.783H92.074L77.4833 115.272L62.8882 132.783H71.6461C71.6517 136.86 72.5105 140.891 74.1674 144.617C75.8242 148.343 78.2423 151.68 81.2663 154.415C84.2903 157.15 87.8531 159.222 91.7258 160.498C95.5985 161.773 99.6953 162.224 103.753 161.822V150.036Z" fill="#003799"/>
</svg>
