<svg width="217" height="217" viewBox="0 0 217 217" fill="none" xmlns="http://www.w3.org/2000/svg">
<g clip-path="url(#clip0_955_648)">
<path d="M108.061 216.357C167.684 216.357 216.016 168.025 216.016 108.402C216.016 48.7929 167.684 0.456055 108.061 0.456055C48.4388 0.456055 0.106445 48.7884 0.106445 108.407C0.106445 168.025 48.4388 216.357 108.061 216.357Z" fill="#C2CBEA" fill-opacity="0.25"/>
<path d="M108.062 0.706055C167.546 0.706096 215.767 48.9313 215.767 108.402C215.766 167.887 167.546 216.107 108.062 216.107C48.5769 216.107 0.356445 167.886 0.356445 108.406C0.356614 48.9263 48.577 0.706055 108.062 0.706055Z" stroke="#003899" stroke-opacity="0.5" stroke-width="0.5"/>
<path d="M84.5093 131.963V118.217C84.5093 108.402 105.592 92.7036 119.838 92.7036C134.25 92.7036 155.17 108.402 155.17 118.217V131.959L84.5093 131.963Z" fill="#3E3E3F"/>
<path d="M147.321 86.8201C141.725 92.4113 134.366 92.6856 128.595 87.6612C133.039 85.952 135.54 82.3894 135.54 77.0007V65.2291C128.589 65.2291 123.689 61.1298 120.841 52.9312C120.755 52.6838 120.409 52.7423 120.4 53.0032C120.193 59.3815 114.003 67.1903 104.139 67.1903V77.0052C104.139 82.6818 108.237 86.4737 111.107 87.6208C105.335 92.6857 97.9541 92.4113 92.3584 86.8156C92.3584 86.8156 100.212 86.8156 100.212 80.9276V65.9038C100.212 55.4547 108.093 46.328 118.519 45.6443C121.202 45.4651 123.893 45.8385 126.425 46.7415C128.957 47.6445 131.277 49.0578 133.241 50.8938C135.204 52.7299 136.77 54.9495 137.841 57.4154C138.912 59.8812 139.466 62.5407 139.467 65.2291V80.9276C139.467 86.8201 147.321 86.8201 147.321 86.8201Z" fill="#84462D"/>
<path d="M120.836 52.9042C120.746 52.6613 120.409 52.7108 120.4 52.9672C120.22 59.3545 114.022 67.1902 104.135 67.1902V77.0052C104.135 82.4884 108.071 86.4062 111.107 87.6207C111.386 87.7377 111.692 87.8186 111.988 87.9221V93.5628L119.838 122.148L127.691 93.5043V87.9626C127.997 87.8696 128.297 87.7692 128.591 87.6612C133.651 85.7225 135.541 81.4718 135.541 77.0007V65.2291C128.587 65.2291 123.688 61.1208 120.836 52.9042Z" fill="#F7B4B4"/>
<path d="M119.837 56.1249V45.6308C119.401 45.6308 118.965 45.6173 118.519 45.6443C108.093 46.328 100.212 55.4547 100.212 65.9084V80.9321C100.212 86.8202 92.3584 86.8202 92.3584 86.8202C97.9541 92.4113 105.335 92.6857 111.107 87.6253C108.237 86.4783 104.134 82.6819 104.134 77.0052V67.1903C112.434 67.1903 118.115 61.6711 119.837 56.1249Z" fill="#9C6144"/>
<path d="M104.135 67.1948V77.0052C104.135 82.4929 108.071 86.4108 111.107 87.6208C111.386 87.7377 111.692 87.8232 111.988 87.9221V93.5673L119.838 122.148V56.1294C118.11 61.6756 112.429 67.1948 104.135 67.1948Z" fill="#FBC8C8"/>
<path d="M161.058 139.808H55.0645V171.214H161.058V139.808Z" fill="#EDBC7C"/>
<path d="M170.873 139.808H45.2539V135.886C45.2539 134.845 45.667 133.847 46.4025 133.11C47.1379 132.374 48.1356 131.96 49.1763 131.959H166.946C167.988 131.959 168.986 132.372 169.723 133.109C170.459 133.845 170.873 134.844 170.873 135.886V139.808ZM153.209 147.662H115.915V171.214H153.204L153.209 147.662ZM100.212 147.662H62.918V171.214H100.208L100.212 147.662Z" fill="#D4A263"/>
<path d="M68.8065 116.265C69.4812 116.265 70.1364 116.331 70.7722 116.463V114.299C70.7722 113.778 70.5651 113.278 70.1964 112.909C69.8278 112.541 69.3278 112.333 68.8065 112.333C68.2852 112.333 67.7852 112.541 67.4166 112.909C67.0479 113.278 66.8408 113.778 66.8408 114.299V116.458C67.4886 116.326 68.1438 116.262 68.8065 116.265Z" fill="#F3B607"/>
<path d="M81.5677 131.959H56.0498L58.9916 128.032V126.071C59.0688 123.519 60.1368 121.098 61.969 119.32C63.8012 117.543 66.2537 116.549 68.8065 116.549C71.3593 116.549 73.8118 117.543 75.644 119.32C77.4762 121.098 78.5441 123.519 78.6214 126.071V128.032L81.5677 131.959Z" fill="#FACB1B"/>
<path d="M78.6214 126.071V128.032H68.8065V116.256C74.2222 116.256 78.6214 120.651 78.6214 126.071ZM81.5677 131.963H68.8065V128.036H78.6214L81.5677 131.963ZM68.8065 128.036V131.963H56.0498L58.9916 128.036H68.8065Z" fill="#F3B607"/>
<path d="M113.954 71.1215C114.22 71.1342 114.486 71.0929 114.735 70.9999C114.984 70.907 115.212 70.7644 115.405 70.5809C115.597 70.3973 115.75 70.1765 115.855 69.932C115.96 69.6874 116.014 69.4241 116.014 69.1581C116.014 68.892 115.96 68.6287 115.855 68.3842C115.75 68.1396 115.597 67.9188 115.405 67.7353C115.212 67.5517 114.984 67.4091 114.735 67.3162C114.486 67.2233 114.22 67.1819 113.954 67.1946C113.45 67.2188 112.974 67.4362 112.625 67.8018C112.277 68.1673 112.083 68.653 112.083 69.1581C112.083 69.6631 112.277 70.1488 112.625 70.5144C112.974 70.8799 113.45 71.0973 113.954 71.1215ZM125.73 71.1215C126.251 71.1215 126.75 70.9146 127.119 70.5464C127.487 70.1782 127.694 69.6788 127.694 69.1581C127.694 68.6373 127.487 68.1379 127.119 67.7697C126.75 67.4015 126.251 67.1946 125.73 67.1946C125.21 67.1946 124.71 67.4015 124.342 67.7697C123.974 68.1379 123.767 68.6373 123.767 69.1581C123.767 69.6788 123.974 70.1782 124.342 70.5464C124.71 70.9146 125.21 71.1215 125.73 71.1215Z" fill="#3E3E3F"/>
<path d="M111.988 78.9707H127.687C127.687 78.9707 125.726 82.8931 119.838 82.8931C113.949 82.8931 111.988 78.9707 111.988 78.9707Z" fill="#F79392"/>
<path d="M127.691 112.334L141.429 110.372L127.691 93.5044L119.838 122.148L127.691 112.334ZM119.838 122.148L111.988 93.5044L98.2466 110.372L111.988 112.334L119.838 122.148Z" fill="white"/>
</g>
<defs>
<clipPath id="clip0_955_648">
<rect width="215.91" height="215.91" fill="white" transform="translate(0.106445 0.456055)"/>
</clipPath>
</defs>
</svg>
