<svg width="215" height="215" viewBox="0 0 215 215" fill="none" xmlns="http://www.w3.org/2000/svg">
<path d="M107.276 0.906738C166.168 0.906738 213.91 48.6518 213.91 107.531C213.91 166.423 166.168 214.164 107.276 214.164C48.3836 214.163 0.643137 166.423 0.643066 107.536C0.643066 48.6478 48.3836 0.906969 107.276 0.906738Z" fill="#D7ECBE" stroke="#71C108" stroke-width="0.777858"/>
<path d="M130.624 150.344C130.624 152.494 128.885 154.233 126.731 154.233H48.9042C47.8725 154.233 46.883 153.823 46.153 153.094C45.4231 152.365 45.0124 151.376 45.0112 150.344V95.8568C45.0112 93.7074 46.7503 91.9639 48.9042 91.9639H126.736C128.89 91.9639 130.629 93.703 130.629 95.8568L130.624 150.344Z" fill="#3E3E3F"/>
<path d="M99.4907 154.238H76.1421V165.912H99.4907V154.238Z" fill="#E2E4E5"/>
<path d="M107.276 167.855C107.276 168.925 106.402 169.8 105.327 169.8H70.3086C69.7924 169.8 69.2973 169.594 68.9322 169.229C68.5672 168.864 68.3621 168.369 68.3621 167.853C68.3621 167.337 68.5672 166.842 68.9322 166.477C69.2973 166.112 69.7924 165.907 70.3086 165.907H105.332C106.406 165.907 107.276 166.781 107.276 167.855ZM130.624 150.344V138.665H45.0068V150.339C45.0068 152.484 46.7504 154.228 48.8998 154.228H126.731C128.881 154.228 130.624 152.493 130.624 150.344Z" fill="white"/>
<path d="M87.8207 150.344C88.8531 150.344 89.8433 149.934 90.5734 149.203C91.3034 148.473 91.7136 147.483 91.7136 146.451C91.7136 145.418 91.3034 144.428 90.5734 143.698C89.8433 142.968 88.8531 142.558 87.8207 142.558C86.7882 142.558 85.798 142.968 85.0679 143.698C84.3379 144.428 83.9277 145.418 83.9277 146.451C83.9277 147.483 84.3379 148.473 85.0679 149.203C85.798 149.934 86.7882 150.344 87.8207 150.344Z" fill="#B6BCBD"/>
<path d="M45.0068 95.8614V138.67H71.3922L118.094 91.9685H48.8998C47.8673 91.9685 46.8771 92.3787 46.147 93.1087C45.417 93.8388 45.0068 94.829 45.0068 95.8614Z" fill="#5B5C5F"/>
<g filter="url(#filter0_d_695_410)">
<path d="M167.597 91.5538C167.594 86.8136 166.174 82.1825 163.52 78.2555C160.865 74.3285 157.096 71.2851 152.699 69.5162C145.778 52.5978 134.603 45.7261 120.918 45.7261C114.816 45.7198 108.832 47.4031 103.629 50.5892C98.4255 53.7753 94.2058 58.3399 91.4375 63.7771C82.7376 60.0759 72.9317 66.2297 72.566 75.7547C68.0338 77.3501 64.2119 80.4973 61.7768 84.6393C59.3416 88.7814 58.4502 93.6513 59.2601 98.3875C60.07 103.124 62.5291 107.421 66.2022 110.518C69.8754 113.616 74.5258 115.314 79.3307 115.313H147.227C147.227 115.313 167.597 111.54 167.597 91.5538Z" fill="#F0F1F1"/>
</g>
<path d="M120.921 45.7261C114.819 45.7194 108.833 47.4029 103.629 50.5899C98.4247 53.7769 94.2046 58.3428 91.4366 63.7816C82.7411 60.0804 72.9307 66.2297 72.5695 75.7547C68.5942 77.1522 65.1506 79.7489 62.7137 83.1866C60.2768 86.6243 58.9668 90.7335 58.9644 94.9473C58.9649 100.057 60.8864 104.979 64.3476 108.738C67.8088 112.496 72.5565 114.816 77.6486 115.237L140.618 52.2723C134.963 47.7551 128.315 45.7261 120.921 45.7261Z" fill="white"/>
<path d="M96.984 85.8907C97.1805 86.3574 97.5095 86.7561 97.9304 87.0375C98.3514 87.3189 98.8456 87.4706 99.3519 87.4737H105.987V105.431C105.987 106.845 107.133 107.995 108.551 107.995H123.94C124.277 107.995 124.611 107.929 124.922 107.8C125.234 107.67 125.517 107.481 125.755 107.243C125.993 107.004 126.182 106.721 126.31 106.409C126.439 106.098 126.505 105.764 126.504 105.427V87.4737H133.14C133.647 87.4745 134.144 87.3245 134.566 87.0428C134.988 86.7611 135.318 86.3604 135.512 85.8914C135.706 85.4224 135.757 84.9063 135.658 84.4084C135.559 83.9106 135.314 83.4534 134.955 83.0948L118.108 67.6747C117.627 67.1941 116.975 66.9241 116.295 66.9241C115.615 66.9241 114.963 67.1941 114.482 67.6747L97.537 83.0948C97.1811 83.4554 96.9389 83.9126 96.8406 84.4097C96.7423 84.9068 96.7922 85.4217 96.984 85.8907Z" fill="#003799"/>
<defs>
<filter id="filter0_d_695_410" x="55.8573" y="45.7261" width="114.851" height="75.8095" filterUnits="userSpaceOnUse" color-interpolation-filters="sRGB">
<feFlood flood-opacity="0" result="BackgroundImageFix"/>
<feColorMatrix in="SourceAlpha" type="matrix" values="0 0 0 0 0 0 0 0 0 0 0 0 0 0 0 0 0 0 127 0" result="hardAlpha"/>
<feOffset dy="3.11143"/>
<feGaussianBlur stdDeviation="1.55572"/>
<feComposite in2="hardAlpha" operator="out"/>
<feColorMatrix type="matrix" values="0 0 0 0 0 0 0 0 0 0 0 0 0 0 0 0 0 0 0.25 0"/>
<feBlend mode="normal" in2="BackgroundImageFix" result="effect1_dropShadow_695_410"/>
<feBlend mode="normal" in="SourceGraphic" in2="effect1_dropShadow_695_410" result="shape"/>
</filter>
</defs>
</svg>
