<svg width="214" height="215" viewBox="0 0 214 215" fill="none" xmlns="http://www.w3.org/2000/svg">
<path d="M107.007 0.907227C165.872 0.907264 213.59 48.6257 213.59 107.486C213.59 166.367 165.803 216.636 107.02 214.069C45.5498 211.384 -0.783666 165.073 0.424316 107.494C1.66423 48.6329 48.1495 0.907227 107.007 0.907227Z" fill="#C2CBEA" stroke="#003799" stroke-width="0.78"/>
<path d="M162.234 151.632C161.381 149.414 160.031 147.421 158.288 145.805C156.545 144.19 154.455 142.995 152.179 142.312L120.576 134.776L106.957 136.721L93.3344 134.776L61.7317 142.312C59.4553 142.995 57.3654 144.19 55.6223 145.805C53.8793 147.421 52.5293 149.414 51.6761 151.632L44.6885 169.799H169.222L162.234 151.632Z" fill="#003799"/>
<path d="M106.958 134.776C100.568 132.645 93.027 128.605 87.4976 120.052V145.26C87.4976 148.618 88.1397 151.944 89.3883 155.057L95.2834 169.799H118.632L124.527 155.057C125.775 151.941 126.415 148.616 126.413 145.26V120.052C120.884 128.605 113.348 132.645 106.958 134.776Z" fill="#F7B4B4"/>
<path d="M87.4976 120.052V145.26C87.4976 148.618 88.1397 151.944 89.3838 155.057L95.2834 169.799H106.958V134.776C100.568 132.645 93.027 128.605 87.4976 120.052Z" fill="#FBC8C8"/>
<path d="M140.036 132.828C129.579 119.762 140.313 119.209 140.313 97.805L140.201 82.2422V78.3493C139.055 60.9672 124.629 47.2148 106.957 47.2148C89.2854 47.2148 74.7482 60.9672 73.6022 78.3493V97.805C73.6022 119.209 84.3356 119.758 73.8787 132.828C66.0928 142.558 50.5256 156.177 71.93 169.795H87.4972C60.2557 156.177 93.5172 152.48 91.3901 134.777C89.0713 115.455 83.6088 121.154 83.6088 105.591V82.2378H87.078C90.8525 82.239 94.5788 81.3907 97.9807 79.7558C101.383 78.1208 104.373 75.7411 106.73 72.7931L106.957 72.5121L107.185 72.7931C109.542 75.7411 112.532 78.1208 115.934 79.7558C119.336 81.3907 123.062 82.239 126.837 82.2378H130.306V105.586C130.306 121.154 124.843 115.455 122.525 134.777C120.398 152.48 153.659 156.181 126.418 169.8H141.98C163.385 156.177 147.822 142.558 140.036 132.832" fill="#3E3E3F"/>
<path d="M136.144 88.0747H134.2V88.0346C134.2 86.1023 134.16 84.1699 134.08 82.2376H126.838C123.063 82.2395 119.336 81.3915 115.933 79.7565C112.53 78.1215 109.539 75.7415 107.182 72.7929L106.959 72.512L106.731 72.7929C104.374 75.7409 101.384 78.1206 97.9819 79.7556C94.58 81.3905 90.8537 82.2388 87.0792 82.2376H79.833C79.7557 84.1699 79.717 86.1023 79.717 88.0346V88.0792H77.7683C75.8241 88.0792 73.8799 90.2375 73.8799 92.4002C73.8799 98.4157 75.561 106.273 82.0091 107.388C86.7582 125.095 97.9999 131.789 106.959 134.776C115.917 131.789 127.159 125.1 131.908 107.388C138.356 106.273 140.037 98.4157 140.037 92.4002C140.037 90.2375 138.093 88.0747 136.144 88.0747Z" fill="#FBC8C8"/>
<path d="M106.73 72.7929C104.373 75.7409 101.383 78.1206 97.981 79.7556C94.5791 81.3905 90.8528 82.2388 87.0783 82.2376H79.8321C79.7518 84.1699 79.7132 86.1023 79.7161 88.0346V88.0792H77.7674C75.8232 88.0792 73.8745 90.2375 73.8745 92.4002C73.8745 98.4157 75.5601 106.273 82.0082 107.388C86.7573 125.095 97.999 131.789 106.958 134.776V72.512L106.73 72.7929Z" fill="#FBD7D7"/>
<path d="M101.117 91.9676C101.117 90.9359 100.707 89.9464 99.978 89.2165C99.2489 88.4866 98.2599 88.0759 97.2282 88.0747H97.2148L97.2282 88.1996C97.2282 89.2297 96.8199 90.2179 96.0927 90.9476C95.3655 91.6772 94.3788 92.0889 93.3486 92.0925C93.3568 92.6028 93.4655 93.1066 93.6683 93.5749C93.8712 94.0433 94.1644 94.4671 94.531 94.8222C94.8977 95.1773 95.3307 95.4566 95.8053 95.6444C96.28 95.8321 96.7869 95.9245 97.2973 95.9163C97.8076 95.9081 98.3114 95.7995 98.7797 95.5966C99.2481 95.3937 99.6719 95.1006 100.027 94.7339C100.382 94.3672 100.661 93.9342 100.849 93.4596C101.037 92.9849 101.125 92.478 101.117 91.9676ZM120.568 91.9676C120.568 91.4564 120.467 90.9502 120.272 90.4779C120.076 90.0056 119.789 89.5764 119.428 89.2149C119.066 88.8534 118.637 88.5667 118.165 88.371C117.692 88.1754 117.186 88.0747 116.675 88.0747H116.666L116.675 88.1951C116.675 89.2253 116.267 90.2134 115.539 90.9431C114.812 91.6728 113.826 92.0845 112.795 92.088C112.788 92.6085 112.885 93.1251 113.081 93.6074C113.276 94.0897 113.567 94.5278 113.935 94.8956C114.303 95.2635 114.742 95.5538 115.224 95.7491C115.706 95.9445 116.223 96.041 116.744 96.0329C117.264 96.0248 117.778 95.9124 118.254 95.7022C118.73 95.492 119.159 95.1883 119.516 94.8092C119.872 94.4301 120.149 93.9832 120.33 93.4951C120.511 93.007 120.592 92.4876 120.568 91.9676Z" fill="#3E3E3F"/>
<path d="M97.2285 113.372H116.689C116.689 113.372 116.689 119.209 106.959 119.209C97.2285 119.209 97.2285 113.368 97.2285 113.368" fill="#F79392"/>
<path d="M106.913 162.018C101.294 162.018 96.0057 161.26 91.3057 159.958L95.2387 169.799H118.587L122.525 159.958C117.438 161.34 112.184 162.033 106.913 162.018Z" fill="white"/>
<path d="M73.6022 78.3493V97.805C73.6022 119.209 84.3356 119.758 73.8787 132.828C66.0928 142.558 50.5256 156.177 71.93 169.795H87.4972C60.2557 156.177 93.5172 152.48 91.3901 134.777C89.0713 115.455 83.6088 121.154 83.6088 105.591V82.2378H87.078C90.8525 82.239 94.5788 81.3907 97.9807 79.7558C101.383 78.1208 104.373 75.7411 106.73 72.7931L106.957 72.5122V47.2148C89.2854 47.2148 74.7482 60.9672 73.6022 78.3493Z" fill="#5B5C5F"/>
<path d="M114.387 117.202H99.5292C98.8196 117.203 98.1215 117.381 97.499 117.722C96.8764 118.062 96.3494 118.554 95.9662 119.151H93.3353C89.2996 119.151 81.661 116.712 81.661 107.477V88.0789H77.1259C74.718 88.0789 72.4087 89.0354 70.7061 90.738C69.0034 92.4407 68.0469 94.75 68.0469 97.1579C68.0469 99.5658 69.0034 101.875 70.7061 103.578C72.4087 105.28 74.718 106.237 77.1259 106.237H77.7769V107.477C77.7769 118.892 87.0834 123.039 93.3397 123.039H95.605C95.92 123.824 96.4624 124.496 97.1625 124.97C97.8626 125.443 98.6884 125.697 99.5336 125.697H114.396C115.523 125.697 116.603 125.25 117.4 124.453C118.196 123.656 118.644 122.576 118.644 121.45C118.644 120.323 118.196 119.243 117.4 118.446C116.603 117.65 115.523 117.202 114.396 117.202" fill="#3E3E3F"/>
</svg>
