<svg width="215" height="215" viewBox="0 0 215 215" fill="none" xmlns="http://www.w3.org/2000/svg">
<path d="M107.641 0.956787C166.505 0.956787 214.223 48.6791 214.224 107.53C214.224 166.394 166.505 214.112 107.641 214.112C48.7764 214.112 1.05867 166.395 1.05859 107.535C1.05859 48.6751 48.7764 0.957018 107.641 0.956787Z" fill="#D7ECBE" stroke="#71C108" stroke-width="0.879573"/>
<g filter="url(#filter0_d_695_450)">
<path d="M113.478 45.27C111.93 45.27 110.444 45.8849 109.349 46.9794C108.254 48.074 107.638 49.5587 107.637 51.1072V86.1301C107.637 89.3541 105.028 91.9672 101.804 91.9672H51.2092C47.9852 91.9672 45.3721 94.5804 45.3721 97.8044V163.962C45.3733 165.51 45.9892 166.995 47.0846 168.09C48.18 169.184 49.6652 169.799 51.2137 169.799H164.068C165.618 169.799 167.103 169.183 168.199 168.088C169.294 166.992 169.91 165.507 169.91 163.957V51.1116C169.91 49.5623 169.294 48.0765 168.199 46.981C167.103 45.8855 165.618 45.27 164.068 45.27H113.478Z" fill="white"/>
</g>
<path d="M146.558 113.372V140.609C146.558 142.763 144.818 144.502 142.669 144.502H123.204V136.72L107.642 148.395L123.204 160.069V152.283H146.558C150.856 152.283 154.343 148.8 154.343 144.502V113.372H146.558ZM67.2677 118.348H74.2107V122.098H67.2677V124.662H74.8172V128.756H62.8887V111.624H74.8172V115.686H67.2677V118.348ZM77.1137 111.624H81.2251L85.3633 118.932L86.817 122.366L86.9374 122.344C86.9151 122.344 86.4781 119.392 86.4513 119.392V111.624H90.759V128.756H86.38L82.5094 122.005L81.0066 118.571L80.8862 118.593L81.4436 121.907V128.756H77.1137V111.624ZM101.381 115.717V128.756H97.0019V115.717H92.4535V111.601H105.929V115.713L101.381 115.717ZM112.003 118.348H118.946V122.098H112.003V124.662H119.552V128.756H107.624V111.624H119.552V115.686H112.003V118.348Z" fill="#003799"/>
<path d="M127.002 123.311H126.231V128.751H121.852V111.624H128.697C132.233 111.624 134.967 113.247 135.065 117.26C135.065 120.431 133.781 122.219 131.703 122.879L136.371 128.756H130.971L127.002 123.311ZM128.768 119.583C131.502 119.583 131.502 115.664 128.768 115.664H126.227V119.588L128.768 119.583Z" fill="#003799"/>
<defs>
<filter id="filter0_d_695_450" x="41.8538" y="45.27" width="131.575" height="131.565" filterUnits="userSpaceOnUse" color-interpolation-filters="sRGB">
<feFlood flood-opacity="0" result="BackgroundImageFix"/>
<feColorMatrix in="SourceAlpha" type="matrix" values="0 0 0 0 0 0 0 0 0 0 0 0 0 0 0 0 0 0 127 0" result="hardAlpha"/>
<feOffset dy="3.51829"/>
<feGaussianBlur stdDeviation="1.75915"/>
<feComposite in2="hardAlpha" operator="out"/>
<feColorMatrix type="matrix" values="0 0 0 0 0 0 0 0 0 0 0 0 0 0 0 0 0 0 0.25 0"/>
<feBlend mode="normal" in2="BackgroundImageFix" result="effect1_dropShadow_695_450"/>
<feBlend mode="normal" in="SourceGraphic" in2="effect1_dropShadow_695_450" result="shape"/>
</filter>
</defs>
</svg>
