<svg width="16" height="21" viewBox="0 0 16 21" fill="none" xmlns="http://www.w3.org/2000/svg">
<path d="M8 0.560547C5.89206 0.560441 3.86926 1.39231 2.37124 2.87534C0.873231 4.35837 0.0210794 6.37271 0 8.48055C0 13.9605 7.05 20.0605 7.35 20.3205C7.53113 20.4755 7.76165 20.5606 8 20.5606C8.23835 20.5606 8.46887 20.4755 8.65 20.3205C9 20.0605 16 13.9605 16 8.48055C15.9789 6.37271 15.1268 4.35837 13.6288 2.87534C12.1307 1.39231 10.1079 0.560441 8 0.560547ZM8 11.5605C7.30777 11.5605 6.63108 11.3553 6.0555 10.9707C5.47993 10.5861 5.03133 10.0395 4.76642 9.39994C4.50151 8.7604 4.4322 8.05666 4.56725 7.37773C4.7023 6.6988 5.03564 6.07516 5.52513 5.58567C6.01461 5.09619 6.63825 4.76285 7.31718 4.6278C7.99612 4.49275 8.69985 4.56206 9.33939 4.82697C9.97893 5.09188 10.5256 5.54048 10.9101 6.11605C11.2947 6.69162 11.5 7.36831 11.5 8.06055C11.5 8.9888 11.1313 9.87904 10.4749 10.5354C9.8185 11.1918 8.92826 11.5605 8 11.5605Z" fill="white"/>
</svg>
