<svg width="24" height="25" viewBox="0 0 24 25" fill="none" xmlns="http://www.w3.org/2000/svg">
<path d="M4 20.5605C3.45 20.5605 2.97933 20.3649 2.588 19.9735C2.19667 19.5822 2.00067 19.1112 2 18.5605V6.56055C2 6.01055 2.196 5.53988 2.588 5.14855C2.98 4.75721 3.45067 4.56121 4 4.56055H20C20.55 4.56055 21.021 4.75655 21.413 5.14855C21.805 5.54055 22.0007 6.01121 22 6.56055V18.5605C22 19.1105 21.8043 19.5815 21.413 19.9735C21.0217 20.3655 20.5507 20.5612 20 20.5605H4ZM12 13.5605L20 8.56055V6.56055L12 11.5605L4 6.56055V8.56055L12 13.5605Z" fill="white"/>
</svg>
