<svg version="1.1" viewBox="0.0 0.0 1191.5485564304463 314.36745406824144" fill="none" stroke="none" stroke-linecap="square" stroke-miterlimit="10" xmlns:xlink="http://www.w3.org/1999/xlink" xmlns="http://www.w3.org/2000/svg"><clipPath id="p.0"><path d="m0 0l1191.5486 0l0 314.36746l-1191.5486 0l0 -314.36746z" clip-rule="nonzero"/></clipPath><g clip-path="url(#p.0)"><path fill="#000000" fill-opacity="0.0" d="m0 0l1191.5486 0l0 314.36746l-1191.5486 0z" fill-rule="evenodd"/><path fill="#000000" fill-opacity="0.0" d="m303.16302 19.61636l873.13385 0l0 244.09448l-873.13385 0z" fill-rule="evenodd"/><path fill="#000000" d="m342.7724 113.363235l10.40625 0l0 14.078125q5.453125 -7.796875 11.21875 -11.390625q7.9375 -4.78125 16.703125 -4.78125q5.90625 0 11.21875 2.328125q5.328125 2.3125 8.6875 6.171875q3.375 3.84375 5.84375 11.03125q5.25 -9.578125 13.109375 -14.546875q7.859375 -4.984375 16.921875 -4.984375q8.453125 0 14.921875 4.265625q6.484375 4.265625 9.625 11.90625q3.140625 7.625 3.140625 22.90625l0 44.46875l-10.703125 0l0 -44.46875q0 -13.109375 -1.875 -18.0q-1.859375 -4.90625 -6.390625 -7.90625q-4.53125 -3.0 -10.828125 -3.0q-7.625 0 -13.953125 4.5q-6.328125 4.484375 -9.25 11.984375q-2.921875 7.484375 -2.921875 25.0l0 31.890625l-10.40625 0l0 -41.703125q0 -14.75 -1.84375 -20.015625q-1.828125 -5.28125 -6.390625 -8.46875q-4.5625 -3.1875 -10.859375 -3.1875q-7.25 0 -13.578125 4.390625q-6.328125 4.375 -9.359375 11.796875q-3.03125 7.40625 -3.03125 22.671875l0 34.515625l-10.40625 0l0 -81.453125zm147.55435 -33.546875q3.59375 0 6.140625 2.546875q2.546875 2.546875 2.546875 6.140625q0 3.515625 -2.546875 6.0625q-2.546875 2.546875 -6.140625 2.546875q-3.515625 0 -6.0625 -2.546875q-2.546875 -2.546875 -2.546875 -6.0625q0 -3.59375 2.546875 -6.140625q2.546875 -2.546875 6.0625 -2.546875zm-5.234375 33.546875l10.546875 0l0 81.453125l-10.546875 0l0 -81.453125zm34.054962 81.453125l0 -110.125l2.40625 0l73.21875 84.296875l0 -84.296875l10.859375 0l0 110.125l-2.46875 0l-72.625 -83.25l0 83.25l-11.390625 0zm150.18951 -83.546875q18.796875 0 31.140625 13.625q11.234375 12.421875 11.234375 29.421875q0 17.0625 -11.875 29.828125q-11.859375 12.765625 -30.5 12.765625q-18.71875 0 -30.59375 -12.765625q-11.859375 -12.765625 -11.859375 -29.828125q0 -16.921875 11.234375 -29.34375q12.359375 -13.703125 31.21875 -13.703125zm0 10.25q-13.03125 0 -22.390625 9.65625q-9.34375 9.65625 -9.34375 23.359375q0 8.84375 4.265625 16.484375q4.265625 7.625 11.515625 11.78125q7.265625 4.15625 15.953125 4.15625q8.6875 0 15.9375 -4.15625q7.265625 -4.15625 11.53125 -11.78125q4.28125 -7.640625 4.28125 -16.484375q0 -13.703125 -9.40625 -23.359375q-9.390625 -9.65625 -22.34375 -9.65625zm70.9751 -38.40625l10.5625 0l0 30.25l16.609375 0l0 8.984375l-16.609375 0l0 72.46875l-10.5625 0l0 -72.46875l-14.296875 0l0 -8.984375l14.296875 0l0 -30.25zm123.97351 30.25l0 81.453125l-10.328125 0l0 -14.0q-6.578125 8.015625 -14.78125 12.0625q-8.203125 4.03125 -17.9375 4.03125q-17.28125 0 -29.53125 -12.53125q-12.234375 -12.546875 -12.234375 -30.515625q0 -17.59375 12.34375 -30.09375q12.359375 -12.5 29.734375 -12.5q10.03125 0 18.140625 4.265625q8.125 4.265625 14.265625 12.796875l0 -14.96875l10.328125 0zm-41.921875 8.015625q-8.75 0 -16.171875 4.3125q-7.40625 4.296875 -11.796875 12.078125q-4.375 7.78125 -4.375 16.46875q0 8.609375 4.421875 16.46875q4.421875 7.859375 11.859375 12.25q7.453125 4.375 15.984375 4.375q8.609375 0 16.328125 -4.34375q7.71875 -4.34375 11.859375 -11.75q4.15625 -7.421875 4.15625 -16.703125q0 -14.140625 -9.328125 -23.640625q-9.3125 -9.515625 -22.9375 -9.515625zm61.551758 -8.015625l10.703125 0l0 11.90625q4.78125 -7.046875 10.09375 -10.515625q5.328125 -3.484375 11.09375 -3.484375q4.34375 0 9.28125 2.765625l-5.46875 8.828125q-3.296875 -1.421875 -5.53125 -1.421875q-5.25 0 -10.125 4.3125q-4.859375 4.296875 -7.40625 13.359375q-1.9375 6.96875 -1.9375 28.15625l0 27.546875l-10.703125 0l0 -81.453125zm48.50885 0l10.546875 0l0 81.453125l-10.546875 0l0 -81.453125zm10.328125 -38.1875l16.09375 0l-22.09375 23.0625l-10.328125 0l16.328125 -23.0625zm103.08618 38.1875l0 81.453125l-10.328125 0l0 -14.0q-6.578125 8.015625 -14.78125 12.0625q-8.203125 4.03125 -17.9375 4.03125q-17.28125 0 -29.53125 -12.53125q-12.234375 -12.546875 -12.234375 -30.515625q0 -17.59375 12.34375 -30.09375q12.359375 -12.5 29.734375 -12.5q10.03125 0 18.140625 4.265625q8.125 4.265625 14.265625 12.796875l0 -14.96875l10.328125 0zm-41.921875 8.015625q-8.75 0 -16.171875 4.3125q-7.40625 4.296875 -11.796875 12.078125q-4.375 7.78125 -4.375 16.46875q0 8.609375 4.421875 16.46875q4.421875 7.859375 11.859375 12.25q7.453125 4.375 15.984375 4.375q8.609375 0 16.328125 -4.34375q7.71875 -4.34375 11.859375 -11.75q4.15625 -7.421875 4.15625 -16.703125q0 -14.140625 -9.328125 -23.640625q-9.3125 -9.515625 -22.9375 -9.515625z" fill-rule="nonzero"/><path fill="#003799" d="m199.78581 47.23042l-152.78607 151.94673l-44.09493 -43.87033l152.78607 -151.94675z" fill-rule="evenodd"/><path fill="#003799" d="m126.82627 191.17464l-43.751335 43.527588l-44.094925 -43.87033l43.751335 -43.527603z" fill-rule="evenodd"/><path fill="#003799" d="m305.27005 153.77403l-152.78607 151.94673l-44.094933 -43.87033l152.78607 -151.94675z" fill-rule="evenodd"/><path fill="#003799" d="m269.76257 118.38032l-43.751343 43.527596l-44.094925 -43.87033l43.751328 -43.527603z" fill-rule="evenodd"/><path fill="#000000" fill-opacity="0.0" d="m1030.5509 38.23257l65.22827 0l0 77.38583l-65.22827 0z" fill-rule="evenodd"/><path fill="#000000" d="m1083.6357 75.6357q0 5.53125 -2.734375 10.265625q-2.734375 4.71875 -7.5 7.484375q-4.765625 2.75 -10.203125 2.75q-5.453125 0 -10.21875 -2.75q-4.765625 -2.75 -7.515625 -7.484375q-2.734375 -4.734375 -2.734375 -10.15625q0 -5.46875 2.734375 -10.25q2.75 -4.796879 7.5 -7.531254q4.765625 -2.734375 10.234375 -2.734375q5.46875 0 10.1875 2.71875q4.71875 2.71875 7.484375 7.515629q2.765625 4.78125 2.765625 10.171875zm-2.84375 0.03125q0 -4.6875 -2.375 -8.8125q-2.359375 -4.125004 -6.421875 -6.484379q-4.0625 -2.375 -8.75 -2.375q-4.71875 0 -8.84375 2.375q-4.125 2.359375 -6.484375 6.484379q-2.359375 4.125 -2.359375 8.859375q0 4.71875 2.359375 8.8125q2.359375 4.078125 6.5 6.453125q4.140625 2.375 8.828125 2.375q4.65625 0 8.734375 -2.375q4.09375 -2.390625 6.453125 -6.46875q2.359375 -4.078125 2.359375 -8.84375zm-26.109375 -11.921879l9.8125 0q3.4375 0 4.9375 0.6875038q1.515625 0.6875 2.46875 2.25q0.953125 1.5625 0.953125 3.640625q0 1.796875 -0.6875 3.109375q-0.515625 0.953125 -2.25 2.109375q1.578125 0.78125 2.125 1.8125q0.546875 1.015625 0.546875 3.515625l0 2.65625q0 1.875 0.828125 3.125l0.390625 0.625l-4.15625 0q-0.390625 -1.453125 -0.546875 -3.453125l-0.1875 -2.890625q-0.09375 -1.59375 -0.5 -2.234375q-0.40625 -0.65625 -1.15625 -0.9375q-0.734375 -0.296875 -2.953125 -0.296875l-5.90625 0l0 9.8125l-3.71875 0l0 -23.531254zm3.71875 3.3906288l0 6.96875l5.78125 0q2.625 0 3.5625 -0.59375q1.390625 -0.859375 1.390625 -2.921875q0 -1.796875 -1.0 -2.625q-0.984375 -0.828125 -3.71875 -0.828125l-6.015625 0z" fill-rule="nonzero"/></g></svg>