<svg width="300" height="300" viewBox="0 0 300 300" fill="none" xmlns="http://www.w3.org/2000/svg">
<g clip-path="url(#clip0_511_1564)">
<path d="M150 299.988C232.844 299.988 300 232.831 300 149.988C300 67.1625 232.844 0 150 0C67.1562 0 0 67.1563 0 149.994C0 232.831 67.1562 299.988 150 299.988Z" fill="#C2CBEA"/>
<g filter="url(#filter0_d_511_1564)">
<path d="M85 73.475C85 67.6875 89.6875 63 95.4688 63H172.269L215.906 99.6562V227.069C215.906 232.85 211.219 237.538 205.431 237.538H95.4688C89.6875 237.538 85 232.85 85 227.069V73.475Z" fill="white"/>
</g>
<path d="M172 62.7251V88.9064C172 94.6939 176.688 99.3813 182.475 99.3813H215.638L172 62.7251Z" fill="#F0F1F1"/>
<path d="M161.094 111.812C161.094 112.171 161.023 112.526 160.886 112.858C160.748 113.189 160.547 113.49 160.294 113.744C160.04 113.997 159.739 114.198 159.408 114.336C159.076 114.473 158.721 114.544 158.362 114.544H109.275C108.574 114.51 107.913 114.208 107.428 113.7C106.944 113.192 106.674 112.517 106.674 111.816C106.674 111.114 106.944 110.439 107.428 109.931C107.913 109.423 108.574 109.121 109.275 109.087H158.362C159.869 109.087 161.094 110.312 161.094 111.812ZM193.819 133.631C193.819 134.354 193.531 135.047 193.02 135.558C192.509 136.069 191.816 136.356 191.094 136.356H109.275C108.584 136.309 107.937 136.002 107.464 135.496C106.991 134.99 106.728 134.324 106.728 133.631C106.728 132.939 106.991 132.272 107.464 131.766C107.937 131.26 108.584 130.953 109.275 130.906H191.087C192.6 130.906 193.819 132.125 193.819 133.631ZM193.819 155.45C193.819 156.95 192.6 158.175 191.094 158.175H109.275C108.552 158.175 107.859 157.888 107.348 157.377C106.837 156.866 106.55 156.173 106.55 155.45C106.55 154.727 106.837 154.034 107.348 153.523C107.859 153.012 108.552 152.725 109.275 152.725H191.087C192.6 152.725 193.819 153.944 193.819 155.45ZM193.819 177.269C193.819 178.769 192.6 179.994 191.094 179.994H109.275C108.574 179.96 107.913 179.658 107.428 179.15C106.944 178.642 106.674 177.967 106.674 177.266C106.674 176.564 106.944 175.889 107.428 175.381C107.913 174.873 108.574 174.571 109.275 174.537H191.087C192.6 174.537 193.819 175.762 193.819 177.269Z" fill="#E2E4E5"/>
<path d="M237.275 81.8125C237.275 99.7875 234.088 114.981 228.763 127.8V127.825C223.525 131.725 212.563 139.087 204.544 139.087C209.431 140.725 215.756 141.869 222.106 141.05C213.956 154.738 203.794 167.194 188.106 164.8C190.913 166.25 194.263 167.587 197.919 168.431C179.731 182.962 157.431 188.681 136.363 190.906C136.363 147.269 168.613 81.8125 237.275 81.8125Z" fill="#003799"/>
<path d="M237.275 81.8125C170.856 81.8125 136.363 144.525 136.363 190.906L237.269 82.25L237.275 81.8125Z" fill="#003799"/>
<path d="M117.275 212.575L237.275 81.8188L128.181 209.994L117.275 212.575Z" fill="#BDBDBD"/>
<path d="M237.275 81.8125L117.275 201.813V212.575L237.275 81.8125Z" fill="#DFDFDF"/>
</g>
<defs>
<filter id="filter0_d_511_1564" x="81" y="63" width="138.906" height="182.538" filterUnits="userSpaceOnUse" color-interpolation-filters="sRGB">
<feFlood flood-opacity="0" result="BackgroundImageFix"/>
<feColorMatrix in="SourceAlpha" type="matrix" values="0 0 0 0 0 0 0 0 0 0 0 0 0 0 0 0 0 0 127 0" result="hardAlpha"/>
<feOffset dy="4"/>
<feGaussianBlur stdDeviation="2"/>
<feComposite in2="hardAlpha" operator="out"/>
<feColorMatrix type="matrix" values="0 0 0 0 0 0 0 0 0 0 0 0 0 0 0 0 0 0 0.25 0"/>
<feBlend mode="normal" in2="BackgroundImageFix" result="effect1_dropShadow_511_1564"/>
<feBlend mode="normal" in="SourceGraphic" in2="effect1_dropShadow_511_1564" result="shape"/>
</filter>
<clipPath id="clip0_511_1564">
<rect width="300" height="300" fill="white"/>
</clipPath>
</defs>
</svg>
