<svg width="300" height="300" viewBox="0 0 300 300" fill="none" xmlns="http://www.w3.org/2000/svg">
<g clip-path="url(#clip0_506_1265)">
<path d="M150 299.987C232.844 299.987 300 232.831 300 149.987C300 67.1625 232.844 0 150 0C67.1562 0 0 67.1562 0 149.994C0 232.831 67.1562 299.987 150 299.987Z" fill="#C2CBEA"/>
<path d="M171.812 155.45C171.812 152.431 174.256 149.994 177.269 149.994H220.906C223.919 149.994 226.362 152.431 226.362 155.45V231.806C226.362 234.819 223.925 237.262 220.906 237.262H177.269C175.823 237.261 174.437 236.685 173.415 235.662C172.393 234.639 171.819 233.252 171.819 231.806L171.812 155.45Z" fill="#3E3E3F"/>
<path d="M226.362 166V155.45C226.362 154.003 225.788 152.615 224.764 151.592C223.741 150.569 222.353 149.994 220.906 149.994H177.269C175.823 149.995 174.437 150.571 173.415 151.594C172.393 152.617 171.819 154.004 171.819 155.45V220.544L226.362 166Z" fill="#5B5C5F"/>
<path d="M62.725 68.1751C62.725 65.1626 65.1625 62.7251 68.1812 62.7251H144.544C147.556 62.7251 150 65.1626 150 68.1751V122.719C150 125.731 147.562 128.175 144.544 128.175H68.1812C66.7341 128.175 65.3463 127.6 64.3231 126.577C63.2998 125.554 62.725 124.166 62.725 122.719V68.1751Z" fill="#3E3E3F"/>
<path d="M68.1812 62.7251C66.7352 62.7251 65.3483 63.2991 64.3253 64.321C63.3022 65.3429 62.7266 66.7291 62.725 68.1751V122.719C62.725 125.731 65.1687 128.175 68.1812 128.175H69.5937L135.05 62.7251H68.1812Z" fill="#5B5C5F"/>
<path d="M128.187 141.812C128.187 143.312 126.962 144.537 125.456 144.537H87.2687C86.5678 144.504 85.9066 144.202 85.4224 143.694C84.9382 143.186 84.6681 142.511 84.6681 141.809C84.6681 141.107 84.9382 140.433 85.4224 139.925C85.9066 139.417 86.5678 139.115 87.2687 139.081H125.456C126.956 139.081 128.181 140.3 128.181 141.806" fill="#F0F1F1"/>
<path d="M117.269 128.175H95.4563V139.081H117.269V128.175Z" fill="#CFD3D4"/>
<path d="M150 122.725V106.362H62.725V122.725C62.725 125.737 65.1625 128.175 68.1812 128.175H144.544C147.556 128.175 150 125.737 150 122.725Z" fill="white"/>
<path d="M106.362 122.725C107.81 122.725 109.197 122.15 110.221 121.127C111.244 120.104 111.819 118.716 111.819 117.269C111.819 115.822 111.244 114.434 110.221 113.411C109.197 112.387 107.81 111.812 106.362 111.812C104.915 111.812 103.528 112.387 102.504 113.411C101.481 114.434 100.906 115.822 100.906 117.269C100.906 118.716 101.481 120.104 102.504 121.127C103.528 122.15 104.915 122.725 106.362 122.725Z" fill="#B6BCBD"/>
<path d="M171.812 155.45V166.356H226.362V155.45C226.365 154.733 226.226 154.022 225.952 153.359C225.679 152.696 225.277 152.093 224.77 151.586C224.263 151.079 223.66 150.677 222.997 150.404C222.334 150.131 221.623 149.991 220.906 149.994H177.269C176.552 149.992 175.842 150.132 175.18 150.406C174.517 150.679 173.916 151.081 173.409 151.588C172.903 152.096 172.501 152.698 172.228 153.36C171.956 154.023 171.81 154.733 171.812 155.45ZM226.362 231.812V220.9H171.819V231.806C171.819 234.819 174.256 237.262 177.269 237.262H220.906C223.919 237.262 226.362 234.831 226.362 231.812Z" fill="white"/>
<path d="M199.094 234.538C200.541 234.538 201.929 233.963 202.952 232.939C203.975 231.916 204.55 230.528 204.55 229.081C204.55 227.634 203.975 226.246 202.952 225.223C201.929 224.2 200.541 223.625 199.094 223.625C197.679 223.673 196.339 224.268 195.355 225.286C194.372 226.303 193.822 227.663 193.822 229.078C193.822 230.493 194.372 231.853 195.355 232.87C196.339 233.888 197.679 234.49 199.094 234.538Z" fill="#B6BCBD"/>
<path d="M160.906 90.3623C162.258 90.1273 163.628 90.0039 165 89.9936C171.508 89.9985 177.748 92.586 182.35 97.1878C186.951 101.79 189.539 108.029 189.544 114.537H177.269L197.725 139.081L218.181 114.537H205.906C205.898 108.823 204.695 103.173 202.373 97.9511C200.05 92.7294 196.661 88.0515 192.423 84.2181C188.185 80.3848 183.191 77.4808 177.763 75.693C172.335 73.9052 166.593 73.2731 160.906 73.8373V90.3623ZM144.55 209.625C143.198 209.858 141.828 209.979 140.456 209.987C133.948 209.982 127.708 207.395 123.107 202.793C118.505 198.191 115.917 191.951 115.913 185.444H128.181L107.731 160.9L87.275 185.444H99.55C99.5579 191.158 100.762 196.808 103.084 202.03C105.406 207.252 108.795 211.929 113.033 215.763C117.272 219.596 122.265 222.5 127.693 224.288C133.121 226.076 138.863 226.708 144.55 226.144V209.625Z" fill="#003799"/>
</g>
<defs>
<clipPath id="clip0_506_1265">
<rect width="300" height="300" fill="white"/>
</clipPath>
</defs>
</svg>
